<?xml version="1.0" encoding="UTF-8" standalone="no"?>
<!DOCTYPE svg PUBLIC "-//W3C//DTD SVG 1.1//EN" "http://www.w3.org/Graphics/SVG/1.1/DTD/svg11.dtd">
<svg width="100%" height="100%" viewBox="0 0 208 220" version="1.1" xmlns="http://www.w3.org/2000/svg" xmlns:xlink="http://www.w3.org/1999/xlink" xml:space="preserve" xmlns:serif="http://www.serif.com/" style="fill-rule:evenodd;clip-rule:evenodd;stroke-linejoin:round;stroke-miterlimit:2;">
    <g>
        <g transform="matrix(1.13709,0,0,1.13709,-18.0869,11.8822)">
            <circle cx="107.172" cy="48.165" r="14.071" style="fill:rgb(68,68,68);"/>
        </g>
        <g transform="matrix(1.13709,0,0,1.13709,-18.0869,11.8822)">
            <path d="M139.615,65.262L73.913,65.262C69.749,65.262 66.375,68.637 66.375,72.801C66.375,76.963 69.749,80.34 73.913,80.34L89.212,80.34C89.041,81.294 88.923,82.27 88.905,83.271C88.902,83.383 88.834,155.564 88.834,155.564C88.834,159.729 92.208,163.104 96.372,163.104C100.535,163.104 103.91,159.729 103.91,155.564L103.91,125.724L110.33,125.724L110.33,155.564C110.33,159.729 113.705,163.104 117.869,163.104C122.032,163.104 125.407,159.729 125.407,155.564L125.384,83.608C125.384,82.489 125.269,81.401 125.078,80.34L139.615,80.34C143.779,80.34 147.152,76.963 147.152,72.801C147.152,68.637 143.779,65.262 139.615,65.262Z" style="fill:rgb(68,68,68);fill-rule:nonzero;"/>
        </g>
        <g transform="matrix(1.26762,0,0,1.26762,-32.9043,5.54144)">
            <circle cx="65.433" cy="53.969" r="6.59" style="fill:rgb(68,68,68);"/>
        </g>
        <g transform="matrix(1.26762,0,0,1.26762,-32.9043,5.54144)">
            <rect x="72.368" y="23.794" width="11.794" height="11.791" style="fill:rgb(68,68,68);"/>
        </g>
        <g transform="matrix(1.26762,0,0,1.26762,-32.9043,5.54144)">
            <path d="M107.295,13.5L98.958,21.838L115.635,21.838L107.295,13.5Z" style="fill:rgb(68,68,68);fill-rule:nonzero;"/>
        </g>
        <g transform="matrix(1.26762,0,0,1.26762,-32.9043,5.54144)">
            <path d="M153.791,48.87L147.056,48.87L143.688,54.702L147.056,60.536L153.791,60.536L157.158,54.702L153.791,48.87Z" style="fill:rgb(68,68,68);fill-rule:nonzero;"/>
        </g>
        <g transform="matrix(1.26762,0,0,1.26762,-32.9043,5.54144)">
            <path d="M132.078,36.616L137.606,32.6L143.137,36.616L141.024,30.116L146.554,26.099L139.719,26.099L137.606,19.599L135.494,26.099L128.66,26.099L134.189,30.116L132.078,36.616Z" style="fill:rgb(68,68,68);fill-rule:nonzero;"/>
        </g>
    </g>
</svg>
