<?xml version="1.0" encoding="UTF-8" standalone="no"?>
<!DOCTYPE svg PUBLIC "-//W3C//DTD SVG 1.1//EN" "http://www.w3.org/Graphics/SVG/1.1/DTD/svg11.dtd">
<svg width="100%" height="100%" viewBox="0 0 100 125" version="1.1" xmlns="http://www.w3.org/2000/svg" xmlns:xlink="http://www.w3.org/1999/xlink" xml:space="preserve" xmlns:serif="http://www.serif.com/" style="fill-rule:evenodd;clip-rule:evenodd;stroke-linejoin:round;stroke-miterlimit:2;">
    <g>
        <g transform="matrix(1,0,0,1,0,11.0472)">
            <path d="M97.5,95L93.9,95L93.9,34C93.9,32.9 93,32 91.9,32L80.1,32C79,32 78.1,32.9 78.1,34L78.1,95L69.9,95L69.9,60C69.9,58.9 69,58 67.9,58L56.1,58C55,58 54.1,58.9 54.1,60L54.1,95L45.9,95L45.9,46C45.9,44.9 45,44 43.9,44L32.1,44C31,44 30.1,44.9 30.1,46L30.1,95L21.9,95L21.9,68C21.9,66.9 21,66 19.9,66L8.1,66C7,66 6.1,66.9 6.1,68L6.1,95L2.5,95C1.4,95 0.5,95.9 0.5,97C0.5,98.1 1.4,99 2.5,99L97.5,99C98.6,99 99.5,98.1 99.5,97C99.5,95.9 98.6,95 97.5,95ZM82.1,36L89.9,36L89.9,95L82.1,95L82.1,36ZM58.1,62L65.9,62L65.9,95L58.1,95L58.1,62ZM34.1,48L41.9,48L41.9,95L34.1,95L34.1,48ZM10.1,70L17.9,70L17.9,95L10.1,95L10.1,70Z" style="fill:rgb(51,51,51);fill-rule:nonzero;"/>
        </g>
        <g transform="matrix(1,0,0,1,0,11.0472)">
            <path d="M86,1C81.6,1 78,4.6 78,9C78,10.6 78.5,12.2 79.4,13.4L65.1,27.6C64.1,27.2 63.1,27 62,27C60.1,27 58.3,27.7 57,28.8L46,21.9C46,21.6 46.1,21.3 46.1,21C46.1,16.6 42.5,13 38.1,13C33.7,13 30.1,16.6 30.1,21C30.1,22.1 30.3,23.2 30.8,24.2L17.1,35.6C16.2,35.2 15.1,35 14,35C9.6,35 6,38.6 6,43C6,47.4 9.6,51 14,51C18.4,51 22,47.4 22,43C22,41.2 21.4,39.5 20.3,38.1L33.1,27.3C34.4,28.3 36.1,29 38,29C40.7,29 43,27.7 44.5,25.7L54.6,32C54.2,32.9 54,33.9 54,35C54,39.4 57.6,43 62,43C66.4,43 70,39.4 70,35C70,33.2 69.4,31.5 68.3,30.1L82.3,16.1C83.4,16.7 84.6,17 86,17C90.4,17 94,13.4 94,9C94,4.6 90.4,1 86,1ZM14,47C11.8,47 10,45.2 10,43C10,40.8 11.8,39 14,39C16.2,39 18,40.8 18,43C18,45.2 16.2,47 14,47ZM38,25C35.8,25 34,23.2 34,21C34,18.8 35.8,17 38,17C40.2,17 42,18.8 42,21C42,23.2 40.2,25 38,25ZM62,39C59.8,39 58,37.2 58,35C58,32.8 59.8,31 62,31C64.2,31 66,32.8 66,35C66,37.2 64.2,39 62,39ZM86,13C83.8,13 82,11.2 82,9C82,6.8 83.8,5 86,5C88.2,5 90,6.8 90,9C90,11.2 88.2,13 86,13Z" style="fill:rgb(51,51,51);fill-rule:nonzero;"/>
        </g>
    </g>
</svg>
