<?xml version="1.0" encoding="UTF-8" standalone="no"?>
<!DOCTYPE svg PUBLIC "-//W3C//DTD SVG 1.1//EN" "http://www.w3.org/Graphics/SVG/1.1/DTD/svg11.dtd">
<svg width="100%" height="100%" viewBox="0 0 100 125" version="1.1" xmlns="http://www.w3.org/2000/svg" xmlns:xlink="http://www.w3.org/1999/xlink" xml:space="preserve" xmlns:serif="http://www.serif.com/" style="fill-rule:evenodd;clip-rule:evenodd;stroke-linejoin:round;stroke-miterlimit:2;">
    <g transform="matrix(1,0,0,1,0,10.4419)">
        <path d="M10.76,69.44C13.145,71.365 15.796,72.935 18.63,74.1C16.86,78.69 16.11,88.35 17.44,91.94C17.908,92.098 18.397,92.182 18.89,92.19C19.314,92.259 19.746,92.259 20.17,92.19C22.01,89.12 23.05,80.49 22.45,75.43C24.684,76.085 26.964,76.573 29.27,76.89C31.169,77.164 33.082,77.334 35,77.4L38,77.4L39.52,77.33L40.29,77.27L41.29,77.14C45.38,76.346 48.549,73.048 49.18,68.93C49.29,68.246 49.324,67.552 49.28,66.86C49.264,66.525 49.227,66.191 49.17,65.86L49.07,65.35C49.069,65.045 49.096,64.74 49.15,64.44C49.216,64.026 49.303,63.615 49.41,63.21C49.521,62.79 49.655,62.376 49.81,61.97L50.07,61.25L50.13,61.07L50.26,60.64C50.335,60.342 50.382,60.037 50.4,59.73C50.462,58.485 50.027,57.264 49.19,56.34C48.762,55.868 48.241,55.49 47.66,55.23C47.517,55.164 47.37,55.107 47.22,55.06L46.92,54.97L46.6,54.87C45.766,54.615 44.959,54.28 44.19,53.87C42.795,53.209 41.628,52.147 40.84,50.82C40.664,50.5 40.517,50.166 40.4,49.82L40.4,49.66L40.46,49.66C41.01,49.73 41.57,49.76 42.12,49.8C43.22,49.86 44.32,49.88 45.41,49.85C46.5,49.82 47.58,49.74 48.66,49.62C49.766,49.498 50.864,49.314 51.95,49.07C53.09,48.793 53.912,47.783 53.95,46.61L54.18,39.53C55.715,39.091 57.172,38.417 58.5,37.53C58.989,37.197 59.453,36.829 59.89,36.43C60.152,36.195 60.396,35.941 60.62,35.67C60.858,35.384 61.069,35.076 61.25,34.75C62.332,32.835 62.366,30.495 61.34,28.55C60.993,27.932 60.539,27.38 60,26.92C59.586,26.553 59.145,26.219 58.68,25.92C58.27,25.67 58.01,25.46 57.68,25.24C56.466,24.416 55.369,23.43 54.42,22.31C52.717,20.298 51.544,17.891 51.01,15.31C50.768,14.183 50.644,13.033 50.64,11.88C50.64,10.66 50.57,9.5 50.45,8.43C50.4,7.94 49.72,7.62 48.97,7.71C48.22,7.8 47.79,8.14 47.78,8.54C47.78,9.54 47.67,10.6 47.55,11.75C47.395,13.119 47.395,14.501 47.55,15.87C47.933,19.134 49.172,22.239 51.14,24.87C52.236,26.361 53.535,27.69 55,28.82C55.36,29.1 55.78,29.43 56.1,29.65C56.369,29.837 56.623,30.044 56.86,30.27C56.991,30.387 57.096,30.53 57.17,30.69C57.244,30.869 57.292,31.057 57.31,31.25C57.35,31.643 57.255,32.038 57.04,32.37C56.991,32.449 56.934,32.523 56.87,32.59C56.79,32.676 56.703,32.757 56.61,32.83C56.335,33.06 56.044,33.271 55.74,33.46C54.353,34.265 52.82,34.788 51.23,35C50.081,35.189 49.208,36.157 49.14,37.32L49.14,37.39L48.76,44.19L48,44.3C47.08,44.39 46.14,44.44 45.21,44.46C44.28,44.48 43.33,44.46 42.4,44.38C41.93,44.38 41.46,44.31 41,44.24L40.2,44.15C40.033,44.133 39.866,44.125 39.698,44.125C36.955,44.125 34.698,46.382 34.698,49.125C34.698,49.17 34.699,49.215 34.7,49.26C34.704,49.538 34.73,49.816 34.78,50.09C34.78,50.33 34.86,50.44 34.9,50.62C34.94,50.8 35.08,51.27 35.18,51.62C35.4,52.253 35.674,52.865 36,53.45C37.31,55.731 39.275,57.567 41.64,58.72C42.633,59.239 43.67,59.667 44.74,60L44.68,60.17C44.27,61.297 43.979,62.463 43.81,63.65C43.7,64.358 43.67,65.076 43.72,65.79L43.72,65.96C43.66,65.67 43.8,66.41 43.79,66.33L43.79,66.45L43.84,66.69C43.872,66.848 43.892,67.009 43.9,67.17C43.941,67.502 43.941,67.838 43.9,68.17C43.658,70.129 42.205,71.735 40.28,72.17L39.81,72.25L39.14,72.32L37.78,72.42C36.88,72.48 35.97,72.5 35.08,72.51C33.324,72.519 31.568,72.439 29.82,72.27C26.593,71.995 23.408,71.347 20.33,70.34C14.64,68.41 10.21,65.23 8.03,62.18C7.79,61.84 7.03,61.86 6.37,62.24C5.71,62.62 5.46,63.18 5.68,63.6C6.967,65.866 8.694,67.852 10.76,69.44ZM45.51,60.2L45.57,60.2L45.51,60.2Z" style="fill:rgb(68,68,68);fill-rule:nonzero;"/>
    </g>
    <g transform="matrix(1,0,0,1,0,10.4419)">
        <path d="M65.47,50.15C65.001,50.291 64.553,50.497 64.14,50.76C63.754,50.949 63.389,51.177 63.05,51.44C62.93,52.22 62.96,53.15 62.9,54.14C62.825,56.226 62.303,58.273 61.37,60.14C60.95,61.04 60.47,61.85 60.2,62.6C60.395,63.042 60.632,63.464 60.91,63.86C61.107,64.228 61.356,64.564 61.65,64.86C62.947,64.686 64.152,64.092 65.08,63.17C67.743,60.655 68.739,56.824 67.64,53.33C67.286,52.061 66.523,50.943 65.47,50.15Z" style="fill:rgb(68,68,68);fill-rule:nonzero;"/>
    </g>
    <g transform="matrix(1,0,0,1,0,10.4419)">
        <path d="M72.38,67.42C71.24,69.42 70.02,71.06 69.25,72.3C69.412,72.755 69.667,73.17 70,73.52C70.43,74.04 70.82,74.41 70.91,74.37C72.984,73.401 74.811,71.971 76.25,70.19C80.329,65.299 82.004,58.826 80.81,52.57C80.416,50.31 79.513,48.169 78.17,46.31C77.672,46.32 77.184,46.454 76.75,46.7C76.335,46.83 75.952,47.048 75.63,47.34C75.7,48.79 76,50.8 76.02,53.11C76.06,55.606 75.778,58.096 75.18,60.52C74.547,62.931 73.606,65.25 72.38,67.42Z" style="fill:rgb(68,68,68);fill-rule:nonzero;"/>
    </g>
    <g transform="matrix(1,0,0,1,0,10.4419)">
        <path d="M88.24,43.36C88.738,46.282 89.072,49.23 89.24,52.19C89.366,56.102 88.949,60.013 88,63.81C86.993,67.596 85.465,71.224 83.46,74.59C81.896,77.109 80.193,79.54 78.36,81.87C78.27,81.99 78.61,82.57 79.11,83.14C79.61,83.71 79.98,83.98 80.11,83.9C82.943,82.187 85.421,79.946 87.41,77.3C92.994,70.028 95.375,60.784 94,51.72C93.543,48.439 92.464,45.276 90.82,42.4C90.74,42.26 90.08,42.4 89.36,42.66C88.64,42.92 88.22,43.22 88.24,43.36Z" style="fill:rgb(68,68,68);fill-rule:nonzero;"/>
    </g>
</svg>
